<?xml version="1.0" encoding="utf-8"?>
<!-- Generator: Adobe Illustrator 19.1.0, SVG Export Plug-In . SVG Version: 6.00 Build 0)  -->
<svg version="1.1" id="Layer_1" xmlns="http://www.w3.org/2000/svg" xmlns:xlink="http://www.w3.org/1999/xlink" x="0px" y="0px"
	 viewBox="0 0 334.6 490.4" style="enable-background:new 0 0 334.6 490.4;" xml:space="preserve">
<style type="text/css">
	.st0{fill:#4A4A4A;}
	.st1{fill:#333333;}
	.st2{opacity:0.5;fill:#4A4A4A;enable-background:new    ;}
	.st3{fill:#BC8E46;}
	.st4{fill:#111111;}
	.st5{fill:#EEEEEE;}
</style>
<g>
	<g>
		<g>
			<rect x="116.1" y="34" class="st0" width="35.3" height="384.4"/>
			<rect x="141.2" y="34" class="st1" width="11.5" height="384.4"/>
			<polygon class="st2" points="36.8,158.1 91.7,456.4 242.2,456.4 297.8,158.1 			"/>
			<polygon class="st3" points="67.3,249.6 103.9,446.2 230.7,446.2 267.3,249.6 			"/>
			<g>
				<g>
					<g>
						<circle class="st4" cx="112" cy="406.2" r="9.5"/>
						<circle class="st4" cx="133.7" cy="406.2" r="9.5"/>
						<circle class="st4" cx="156.1" cy="406.2" r="9.5"/>
						<circle class="st4" cx="178.5" cy="406.2" r="9.5"/>
						<circle class="st4" cx="200.2" cy="406.2" r="9.5"/>
						<circle class="st4" cx="222.6" cy="406.2" r="9.5"/>
					</g>
				</g>
				<circle class="st4" cx="123.6" cy="427.3" r="9.5"/>
				<circle class="st4" cx="145.3" cy="427.3" r="9.5"/>
				<circle class="st4" cx="167" cy="427.3" r="9.5"/>
				<circle class="st4" cx="190" cy="427.3" r="9.5"/>
				<circle class="st4" cx="211.7" cy="427.3" r="9.5"/>
			</g>
			<polygon class="st5" points="301.2,143.8 202.9,143.8 131.7,143.8 34.1,143.8 24.6,171 70,171 265.3,171 310,171 			"/>
		</g>
	</g>
</g>
<g>
</g>
<g>
</g>
<g>
</g>
<g>
</g>
<g>
</g>
<g>
</g>
</svg>
