<?xml version="1.0" encoding="utf-8"?>
<!-- Generator: Adobe Illustrator 19.1.0, SVG Export Plug-In . SVG Version: 6.00 Build 0)  -->
<svg version="1.1" id="Layer_1" xmlns="http://www.w3.org/2000/svg" xmlns:xlink="http://www.w3.org/1999/xlink" x="0px" y="0px"
	 viewBox="0 0 568.3 360.3" style="enable-background:new 0 0 568.3 360.3;" xml:space="preserve">
<style type="text/css">
	.st0{fill:#384241;}
	.st1{fill:#2B2C2B;}
	.st2{fill:#FFFFFF;}
	.st3{fill:#E5E5E5;}
	.st4{fill:#3C97D3;}
	.st5{fill:#2A80BB;}
</style>
<g>
	<g>
		<g>
			<path class="st0" d="M179.7,74.2c-3.4,0-14.4,0-17.8,0c0,61.2-40.4,146.9-55.2,161.7c3.8,0,11.4,0,21.1,0
				c2.3-14.4,20.7-25.7,43.1-25.7s40.8,11.2,43.1,25.7c9.7,0,17.3,0,21.1,0C220.1,221.1,179.7,135.5,179.7,74.2z M170.9,191.2h-0.2
				h-26.3l7.5-17.6h18.8h0.2h18.8l7.5,17.6H170.9z"/>
			<rect x="126.4" y="191.2" class="st0" width="88.8" height="7.7"/>
			<rect x="139.7" y="157.9" class="st0" width="62.1" height="6.1"/>
			<rect x="158.5" y="68.4" class="st0" width="24.6" height="7.3"/>
			<rect x="163.1" y="62.5" class="st0" width="15.3" height="7.3"/>
			<rect x="169.4" y="30.2" class="st0" width="2.8" height="32.3"/>
		</g>
		<path class="st1" d="M170.8,191.2h26.3l-7.5-17.6h-18.8h-0.1V30.2h1.4v32.3h6.2v6h4.7v7.3h-3.4c0.3,25.6,7.4,55.2,16.7,82.1h5.4
			v6.1h-3.2c3.5,9.6,7.2,18.8,11,27.3h5.6v7.7H213c8.5,18.2,16.8,31.9,21.9,37c-3.8,0-11.4,0-21.1,0c-2.3-14.4-20.7-25.7-43.1-25.7
			v-19.1L170.8,191.2L170.8,191.2z"/>
	</g>
	<path class="st0" d="M466.7,194.4h-22.2v-27h6.6v-5.2h10.5v-2.5l-7.3-5.9h-9.7v-26.9h6.6v-5.2h10.5v-2.5l-7.3-5.9h-26.3V93.1h3.8
		v-4.2h6v-2l-4.2-4.8h-5.6V63h3.8v-4.2h6v-2L409,39.7v-15c0-1.8-1.4-3.2-3.2-3.2s-3.2,1.4-3.2,3.2v15l-28.9,17.1v2h6V63h3.8v19.1
		h-5.6l-4.2,4.8v2h6v4.2h3.8v20.2h-26.1l-7.3,5.9v2.5h10.5v5.2h6.6v26.9h-9.7l-7.3,5.9v2.5h10.5v5.2h6.6v27h-22.2l-9.2,5.9v2.5h10.7
		v5.2h8.5v27.9h102V208h8.5v-5.2h10.7v-2.5L466.7,194.4z"/>
	<path class="st1" d="M444.3,194.4v-27h6.6v-5.2h10.5v-2.5l-7.3-5.9h-9.7v-26.9h6.6v-5.2h10.5v-2.5l-7.3-5.9h-26.1V93.1h3.8v-4.2h6
		v-2l-4.2-4.8h-5.6V63h3.8v-4.2h6v-2L409,39.7v-15c0-1.8-1.4-3.2-3.2-3.2v214.4h51V208h8.5v-5.2H476v-2.5l-9.2-5.9L444.3,194.4
		L444.3,194.4z"/>
	<g>
		<path class="st0" d="M312.3,68.7h-3.5v-7.9H303c-2-2-5.9-6.3-7.5-10.6h0.1V39.6l-8.8-9.5l-8.8,9.5v10.6h0.1
			c-1.5,4.3-5.4,8.6-7.5,10.6h-5.8v7.9h-3.5v47.7h3.5v7.9h4.6v116.9h34.9v-117h4.6v-7.9h3.5V68.7L312.3,68.7L312.3,68.7z"/>
		<path class="st1" d="M286.8,241.1V30.2l8.8,9.5v10.6h-0.1c1.5,4.3,5.4,8.6,7.5,10.6h5.8v7.9h3.5v47.7h-3.5v7.9h-4.6v116.9h-17.4
			V241.1L286.8,241.1z"/>
		<g>
			<circle class="st2" cx="286.8" cy="92.5" r="13.9"/>
			<path class="st3" d="M300.7,92.5c0,7.7-6.2,13.9-13.9,13.9V78.6C294.5,78.6,300.7,84.9,300.7,92.5z"/>
		</g>
	</g>
	<g>
		<polygon class="st4" points="551.9,270.4 531.2,304.7 551.9,338.9 448.9,338.9 448.9,270.4 		"/>
		<polygon class="st5" points="448.9,338.9 494.8,318.7 448.9,318.7 		"/>
		<polygon class="st4" points="16.5,270.4 37.3,304.7 16.5,338.9 119.5,338.9 119.5,270.4 		"/>
		<rect x="73.6" y="229.2" class="st4" width="420.6" height="89.5"/>
		<polygon class="st5" points="119.5,338.9 73.6,318.7 119.5,318.7 		"/>
	</g>
	<g>
		<path class="st2" d="M121.6,259.7l10.5,21.8c0.4,0.9,0.7,1.5,0.7,2c0,0.9-0.8,1.8-2.3,2.5c-0.9,0.4-1.6,0.7-2.1,0.7
			s-0.9-0.1-1.2-0.4c-0.3-0.2-0.6-0.5-0.7-0.7c-0.1-0.3-0.3-0.7-0.6-1.2l-2-4.2h-10.8l-2,4.2c-0.3,0.5-0.5,0.9-0.6,1.1
			s-0.4,0.5-0.7,0.7c-0.3,0.2-0.7,0.4-1.2,0.4s-1.2-0.2-2.1-0.7c-1.5-0.7-2.3-1.6-2.3-2.5c0-0.4,0.2-1.1,0.7-2l10.5-21.8
			c0.3-0.6,0.7-1.1,1.3-1.4c0.6-0.4,1.2-0.5,1.9-0.5C119.9,257.6,120.9,258.3,121.6,259.7z M118.4,269l-2.6,5.3h5.2L118.4,269z"/>
		<path class="st2" d="M141.8,280.5h10.6c0.9,0,1.5,0.1,1.9,0.3c0.4,0.2,0.6,0.5,0.8,0.9c0.1,0.4,0.2,1,0.2,1.7s-0.1,1.2-0.2,1.7
			c-0.1,0.4-0.4,0.7-0.7,0.9c-0.5,0.3-1.2,0.4-2,0.4h-14c-1.8,0-2.9-0.5-3.2-1.5c-0.2-0.4-0.2-1.1-0.2-2v-21.7c0-0.6,0-1,0.1-1.3
			c0.1-0.3,0.2-0.6,0.4-1c0.4-0.7,1.4-1.1,3-1.1c1.8,0,2.9,0.5,3.2,1.4c0.1,0.4,0.2,1.1,0.2,2v19.3H141.8z"/>
		<path class="st2" d="M174.4,259.7l10.5,21.8c0.4,0.9,0.7,1.5,0.7,2c0,0.9-0.8,1.8-2.3,2.5c-0.9,0.4-1.6,0.7-2.1,0.7
			s-0.9-0.1-1.2-0.4c-0.3-0.2-0.6-0.5-0.7-0.7c-0.1-0.3-0.3-0.7-0.6-1.2l-2-4.2h-10.8l-2,4.2c-0.3,0.5-0.5,0.9-0.6,1.1
			c-0.1,0.2-0.4,0.5-0.7,0.7c-0.3,0.2-0.7,0.4-1.2,0.4s-1.2-0.2-2.1-0.7c-1.5-0.7-2.3-1.6-2.3-2.5c0-0.4,0.2-1.1,0.7-2l10.5-21.8
			c0.3-0.6,0.7-1.1,1.3-1.4c0.6-0.4,1.2-0.5,1.9-0.5C172.6,257.6,173.7,258.3,174.4,259.7z M171.2,269l-2.6,5.3h5.2L171.2,269z"/>
		<path class="st2" d="M209.6,281.4c0.4,0.9,0.6,1.6,0.6,2c0,1-0.8,1.8-2.4,2.5c-0.8,0.4-1.5,0.5-2,0.5s-0.9-0.1-1.2-0.4
			c-0.3-0.2-0.6-0.5-0.7-0.8c-0.3-0.5-1.3-2.8-3-7.1l-1.2,0.1h-4.9v4.4c0,0.6,0,1-0.1,1.3c0,0.3-0.2,0.6-0.4,1
			c-0.4,0.7-1.4,1.1-3,1.1c-1.8,0-2.9-0.5-3.2-1.4c-0.2-0.4-0.2-1.1-0.2-2v-21.7c0-0.6,0-1,0.1-1.3c0.1-0.3,0.2-0.6,0.4-1
			c0.4-0.7,1.4-1.1,3-1.1h8.4c2.3,0,4.5,0.8,6.7,2.5c1,0.8,1.9,1.9,2.6,3.3c0.7,1.4,1,2.9,1,4.6c0,2.9-1,5.4-2.9,7.3
			C207.5,276.6,208.4,278.7,209.6,281.4z M194.6,271.4h5c0.8,0,1.5-0.3,2.3-0.9s1.1-1.4,1.1-2.6s-0.4-2-1.1-2.6
			c-0.8-0.6-1.5-0.9-2.3-0.9h-4.9v7H194.6z"/>
		<path class="st2" d="M234.3,258.2c1.3,0.9,1.9,1.7,1.9,2.6c0,0.5-0.3,1.2-0.9,2.1l-8.4,12.6v7.5c0,0.6,0,1-0.1,1.3
			c0,0.3-0.2,0.6-0.4,1s-0.6,0.7-1.1,0.8c-0.5,0.2-1.2,0.2-2,0.2s-1.5-0.1-2-0.2c-0.5-0.2-0.8-0.4-1.1-0.8c-0.2-0.4-0.3-0.8-0.4-1.1
			c0-0.3-0.1-0.8-0.1-1.4v-7.4l-8.4-12.6c-0.6-0.9-0.9-1.6-0.9-2.1c0-0.8,0.6-1.6,1.7-2.4c1.1-0.8,2-1.2,2.5-1.2s0.9,0.1,1.2,0.3
			c0.4,0.3,0.9,0.8,1.4,1.6l6,9.7l6-9.7c0.5-0.8,0.9-1.3,1.3-1.5c0.4-0.2,0.8-0.4,1.3-0.4C232.5,257.2,233.2,257.5,234.3,258.2z"/>
		<path class="st2" d="M255.1,280.5h10.6c0.9,0,1.5,0.1,1.9,0.3c0.4,0.2,0.6,0.5,0.8,0.9c0.1,0.4,0.2,1,0.2,1.7s-0.1,1.2-0.2,1.7
			c-0.1,0.4-0.4,0.7-0.7,0.9c-0.5,0.3-1.2,0.4-2,0.4h-14c-1.8,0-2.9-0.5-3.2-1.5c-0.2-0.4-0.2-1.1-0.2-2v-21.7c0-0.6,0-1,0.1-1.3
			s0.2-0.6,0.4-1c0.4-0.7,1.4-1.1,3-1.1c1.8,0,2.9,0.5,3.2,1.4c0.1,0.4,0.2,1.1,0.2,2L255.1,280.5L255.1,280.5z"/>
		<path class="st2" d="M287.6,259.7l10.5,21.8c0.4,0.9,0.7,1.5,0.7,2c0,0.9-0.8,1.8-2.3,2.5c-0.9,0.4-1.6,0.7-2.1,0.7
			s-0.9-0.1-1.3-0.4c-0.4-0.3-0.6-0.5-0.7-0.7c-0.1-0.3-0.3-0.7-0.6-1.2l-2-4.2h-10.7l-2,4.2c-0.3,0.5-0.5,0.9-0.6,1.1
			s-0.4,0.5-0.7,0.7c-0.3,0.2-0.7,0.4-1.2,0.4s-1.2-0.2-2.1-0.7c-1.5-0.7-2.3-1.6-2.3-2.5c0-0.4,0.2-1.1,0.7-2l10.5-21.8
			c0.3-0.6,0.7-1.1,1.3-1.4c0.6-0.4,1.2-0.5,1.9-0.5C285.9,257.6,286.9,258.3,287.6,259.7z M284.4,269l-2.6,5.3h5.2L284.4,269z"/>
		<path class="st2" d="M319.4,258.8c0.2-0.5,0.6-0.8,1.1-0.9s1.1-0.2,1.9-0.2c0.7,0,1.3,0.1,1.8,0.2s0.8,0.3,1,0.5s0.4,0.5,0.5,0.8
			c0.2,0.4,0.2,1.1,0.2,2v21.7c0,0.6,0,1.1-0.1,1.4s-0.2,0.6-0.4,1c-0.4,0.7-1.4,1.1-3,1.1c-1,0-1.7-0.1-2.1-0.2
			c-0.4-0.2-0.7-0.4-1-0.7c-5.9-7.8-9.7-12.9-11.6-15.3V283c0,0.6,0,1.1-0.1,1.4s-0.2,0.6-0.4,1c-0.4,0.7-1.4,1.1-3,1.1
			s-2.6-0.4-3-1.1c-0.2-0.4-0.3-0.7-0.4-1.1c-0.1-0.4-0.1-0.8-0.1-1.4v-21.8c0-1,0.1-1.7,0.4-2.2s0.6-0.8,1.1-0.9s1.1-0.2,1.9-0.2
			s1.4,0.1,1.9,0.2s0.8,0.3,1,0.5c0.1,0.1,0.4,0.4,0.9,1c5.5,7.5,9.2,12.4,11,14.8v-13.2C319.1,260,319.2,259.3,319.4,258.8z"/>
		<path class="st2" d="M344,269h6.9c1.4,0.1,2.3,0.4,2.6,1.1c0.3,0.5,0.4,1.2,0.4,2.2v8.6c0,0.8-0.4,1.6-1.1,2.4
			c-2.2,2.3-5.5,3.4-9.8,3.4c-3.9,0-7.2-1.5-10.1-4.4s-4.3-6.5-4.3-10.6s1.5-7.6,4.4-10.4s6.3-4.2,10.3-4.2c3.1,0,6,1,8.7,3
			c0.7,0.5,1.1,1.1,1.1,1.7s-0.3,1.4-0.9,2.2c-1,1.4-1.9,2.1-2.8,2.1c-0.5,0-1.3-0.4-2.4-1.1s-2.4-1.1-3.9-1.1c-2,0-3.7,0.7-5.3,2.1
			s-2.3,3.2-2.3,5.5s0.8,4.2,2.3,5.7s3.3,2.4,5.3,2.4c1.4,0,2.7-0.2,3.9-0.7v-4.3h-3.1c-0.8,0-1.4-0.1-1.7-0.3
			c-0.3-0.2-0.6-0.5-0.7-0.9s-0.2-0.9-0.2-1.6s0.1-1.2,0.2-1.7s0.3-0.7,0.6-0.9C342.5,269.1,343.2,269,344,269z"/>
		<path class="st2" d="M375.6,258.7c0.3-0.4,0.6-0.7,1.1-0.9s1.1-0.2,1.9-0.2c0.7,0,1.3,0.1,1.8,0.2c0.4,0.1,0.8,0.3,1,0.5
			s0.4,0.5,0.5,0.8c0.2,0.4,0.2,1.1,0.2,2v11.8c0,3.4-1.1,6.6-3.2,9.4c-1,1.3-2.4,2.4-4,3.2c-1.6,0.8-3.5,1.2-5.4,1.2
			s-3.8-0.4-5.4-1.2c-1.6-0.8-2.9-1.9-4-3.3c-2.1-2.8-3.2-5.9-3.2-9.4v-11.7c0-0.6,0-1.1,0.1-1.4c0-0.3,0.2-0.6,0.4-1
			s0.6-0.7,1.1-0.8s1.2-0.2,2-0.2s1.5,0.1,2,0.2s0.8,0.4,1,0.8c0.3,0.6,0.5,1.4,0.5,2.5v11.7c0,1.6,0.4,3.1,1.2,4.5
			c0.4,0.7,1,1.3,1.8,1.8s1.7,0.7,2.8,0.7c1.9,0,3.3-0.7,4.3-2.1c0.9-1.4,1.4-3,1.4-4.9V261C375.2,259.8,375.3,259.1,375.6,258.7z"
			/>
		<path class="st2" d="M399.8,259.7l10.5,21.8c0.4,0.9,0.7,1.5,0.7,2c0,0.9-0.8,1.8-2.3,2.5c-0.9,0.4-1.6,0.7-2.1,0.7
			s-0.9-0.1-1.2-0.4c-0.3-0.2-0.6-0.5-0.7-0.7c-0.1-0.3-0.3-0.7-0.6-1.2l-2-4.2h-10.8l-2,4.2c-0.3,0.5-0.5,0.9-0.6,1.1
			s-0.4,0.5-0.7,0.7s-0.7,0.4-1.2,0.4s-1.2-0.2-2.1-0.7c-1.5-0.7-2.3-1.6-2.3-2.5c0-0.4,0.2-1.1,0.7-2l10.5-21.8
			c0.3-0.6,0.7-1.1,1.3-1.4c0.6-0.4,1.2-0.5,1.9-0.5C398.1,257.6,399.1,258.3,399.8,259.7z M396.6,269l-2.6,5.3h5.2L396.6,269z"/>
		<path class="st2" d="M428.1,269h6.9c1.4,0.1,2.3,0.4,2.6,1.1c0.3,0.5,0.4,1.2,0.4,2.2v8.6c0,0.8-0.4,1.6-1.1,2.4
			c-2.2,2.3-5.5,3.4-9.8,3.4c-3.9,0-7.2-1.5-10.1-4.4s-4.3-6.5-4.3-10.6s1.5-7.6,4.4-10.4s6.3-4.2,10.3-4.2c3.1,0,6,1,8.7,3
			c0.7,0.5,1.1,1.1,1.1,1.7s-0.3,1.4-0.9,2.2c-1,1.4-1.9,2.1-2.8,2.1c-0.5,0-1.3-0.4-2.4-1.1s-2.4-1.1-3.9-1.1c-2,0-3.7,0.7-5.3,2.1
			s-2.3,3.2-2.3,5.5s0.8,4.2,2.3,5.7s3.3,2.4,5.3,2.4c1.4,0,2.7-0.2,3.9-0.7v-4.3H428c-0.8,0-1.4-0.1-1.7-0.3
			c-0.3-0.2-0.6-0.5-0.7-0.9s-0.2-0.9-0.2-1.6s0.1-1.2,0.2-1.7s0.3-0.7,0.6-0.9C426.6,269.1,427.3,269,428.1,269z"/>
		<path class="st2" d="M447.9,279.3h12c0.6,0,1,0,1.3,0.1c0.3,0,0.6,0.2,1,0.4c0.7,0.4,1.1,1.4,1.1,3c0,1.8-0.5,2.9-1.4,3.2
			c-0.4,0.2-1.1,0.2-2,0.2h-15.5c-1.8,0-2.9-0.5-3.2-1.5c-0.2-0.4-0.2-1.1-0.2-2V261c0-1.3,0.2-2.2,0.7-2.7s1.4-0.7,2.8-0.7h15.4
			c0.6,0,1,0,1.3,0.1c0.3,0,0.6,0.2,1,0.4c0.7,0.4,1.1,1.4,1.1,3c0,1.8-0.5,2.9-1.4,3.2c-0.4,0.2-1.1,0.2-2,0.2h-12v3.9h7.7
			c0.6,0,1,0,1.3,0.1c0.3,0,0.6,0.2,1,0.4c0.7,0.4,1.1,1.4,1.1,3c0,1.8-0.5,2.9-1.5,3.2c-0.4,0.2-1.1,0.2-2,0.2h-7.6L447.9,279.3
			L447.9,279.3z"/>
	</g>
</g>
<g>
</g>
<g>
</g>
<g>
</g>
<g>
</g>
<g>
</g>
<g>
</g>
</svg>
