<?xml version="1.0" encoding="utf-8"?>
<!-- Generator: Adobe Illustrator 19.1.0, SVG Export Plug-In . SVG Version: 6.00 Build 0)  -->
<svg version="1.1" id="Layer_1" xmlns="http://www.w3.org/2000/svg" xmlns:xlink="http://www.w3.org/1999/xlink" x="0px" y="0px"
	 viewBox="0 0 612 361.4" style="enable-background:new 0 0 612 361.4;" xml:space="preserve">
<style type="text/css">
	.st0{fill:#DDDDDD;}
	.st1{fill:#222222;}
</style>
<path class="st0" d="M182.9,33.2C101,33.2,34.6,81.1,34.6,140.1c0,23.3,10.4,44.9,28,62.5c1.1,1.1,1.6,2.7,1.2,4.3l-8.9,37.2
	c-0.8,3.3,2.2,6.3,5.5,5.4l53.6-13.9c0.9-0.2,1.8-0.2,2.6,0.1c20,7.2,42.5,11.3,66.3,11.3c81.9,0,148.4-47.8,148.4-106.9
	C331.3,81.1,264.9,33.2,182.9,33.2z"/>
<path class="st0" d="M460.6,157.7c64.6,0,116.9,37.7,116.9,84.2c0,18.4-8.2,35.4-22,49.2c-0.9,0.9-1.3,2.1-1,3.4l7,29.3
	c0.6,2.6-1.8,4.9-4.4,4.3l-42.2-11c-0.7-0.2-1.4-0.1-2.1,0.1c-15.7,5.7-33.5,8.9-52.3,8.9c-64.6,0-116.9-37.7-116.9-84.2
	C343.7,195.4,396,157.7,460.6,157.7z"/>
<g>
	<path class="st1" d="M90.3,156.8H73.1v-39.4h15.3c2.7,0,5,0.3,6.9,1c1.9,0.6,3.4,1.5,4.4,2.6c1.8,2,2.6,4.3,2.6,6.9
		c0,3.1-1,5.4-3,6.9c-0.7,0.5-1.1,0.9-1.4,1c-0.3,0.1-0.7,0.3-1.4,0.6c2.4,0.5,4.4,1.6,5.8,3.3c1.4,1.7,2.2,3.7,2.2,6.2
		c0,2.7-0.9,5.2-2.8,7.3C99.5,155.5,95.8,156.8,90.3,156.8z M81.9,133.3h4.2c2.4,0,4.3-0.3,5.4-0.8c1.2-0.5,1.8-1.7,1.8-3.4
		s-0.5-2.9-1.6-3.5c-1.1-0.6-2.9-0.8-5.5-0.8h-4.2V133.3z M81.9,149.3h6c2.5,0,4.4-0.3,5.7-0.9c1.3-0.6,1.9-1.8,1.9-3.7
		c0-1.8-0.7-3-2-3.6c-1.3-0.6-3.5-0.9-6.4-0.9h-5.2V149.3z"/>
	<path class="st1" d="M141.1,141.6c0,4.4-1.5,8.1-4.6,11.1c-3,3-6.9,4.5-11.5,4.5c-4.6,0-8.4-1.5-11.5-4.5c-3-3-4.6-6.7-4.6-11.1
		c0-4.4,1.5-8.1,4.6-11.1c3-3,6.9-4.5,11.5-4.5c4.6,0,8.4,1.5,11.5,4.5C139.6,133.5,141.1,137.2,141.1,141.6z M117.5,141.6
		c0,2.5,0.7,4.5,2.1,6.1c1.4,1.6,3.2,2.3,5.4,2.3s4-0.8,5.4-2.3c1.4-1.6,2.1-3.6,2.1-6.1c0-2.5-0.7-4.5-2.1-6.1
		c-1.4-1.6-3.2-2.4-5.4-2.4s-4,0.8-5.4,2.4C118.2,137.1,117.5,139.1,117.5,141.6z"/>
	<path class="st1" d="M155.8,139.9v16.9h-8.4v-30.3h8.4v3.4c2.6-2.6,5.4-3.9,8.6-3.9c3.2,0,5.9,1.1,8,3.4c2.2,2.3,3.2,5.3,3.2,9
		v18.4h-8.4v-17.1c0-4.7-1.7-7-5.1-7c-1.7,0-3.2,0.6-4.4,1.8C156.4,135.7,155.8,137.5,155.8,139.9z"/>
	<path class="st1" d="M186.2,157.3v-30.9h8.4V158c0,3.3-1,5.9-3,7.8c-2,1.9-4.5,2.9-7.4,2.9c-2.9,0-5.7-1.2-8.3-3.6l3.9-6.2
		c1.1,1.3,2.4,2,3.8,2c0.8,0,1.4-0.3,1.9-0.9C185.9,159.4,186.2,158.5,186.2,157.3z M186.9,122.6c-1-1-1.4-2.1-1.4-3.5
		c0-1.4,0.5-2.6,1.4-3.5c1-1,2.1-1.4,3.5-1.4c1.4,0,2.6,0.5,3.5,1.4s1.4,2.1,1.4,3.5c0,1.4-0.5,2.6-1.4,3.5s-2.1,1.4-3.5,1.4
		C189,124.1,187.8,123.6,186.9,122.6z"/>
	<path class="st1" d="M232.9,141.6c0,4.4-1.5,8.1-4.6,11.1c-3,3-6.9,4.5-11.5,4.5c-4.6,0-8.4-1.5-11.5-4.5c-3-3-4.6-6.7-4.6-11.1
		c0-4.4,1.5-8.1,4.6-11.1c3-3,6.9-4.5,11.5-4.5c4.6,0,8.4,1.5,11.5,4.5C231.4,133.5,232.9,137.2,232.9,141.6z M209.4,141.6
		c0,2.5,0.7,4.5,2.1,6.1c1.4,1.6,3.2,2.3,5.4,2.3s4-0.8,5.4-2.3c1.4-1.6,2.1-3.6,2.1-6.1c0-2.5-0.7-4.5-2.1-6.1
		c-1.4-1.6-3.2-2.4-5.4-2.4s-4,0.8-5.4,2.4C210.1,137.1,209.4,139.1,209.4,141.6z"/>
	<path class="st1" d="M258.7,142.8v-16.3h8.5v30.3h-8.5v-4c-2.1,3-4.8,4.4-8.1,4.4c-3.3,0-6.1-1-8.4-3.1s-3.4-5.2-3.4-9.3v-18.4h8.5
		V143c0,4.7,1.7,7,5.1,7c1.7,0,3.2-0.6,4.4-1.8C258.1,146.9,258.7,145.1,258.7,142.8z"/>
	<path class="st1" d="M291.1,133.9c-2.5,0-4.4,0.9-5.6,2.7c-1.2,1.8-1.9,4.1-1.9,7.1v13.1h-8.4v-30.3h8.4v4c1.1-1.2,2.4-2.3,4.1-3.2
		c1.6-0.9,3.3-1.3,5-1.4l0.1,7.9H291.1z"/>
</g>
<g>
	<path class="st1" d="M419.5,212.5c-2.1,7-4.2,12.8-6.4,17.4h1.5v37.9h-7.8v-27c-1.2,1.8-2.6,3.8-4.1,5.9l-4.8-5
		c4.1-6.1,6.9-11.2,8.6-15.1c1.6-3.9,3.3-9.1,5.1-15.5L419.5,212.5z M442.5,226.6v33.7c0,4.6-2.5,6.9-7.4,6.9h-9l-1.4-7.9h7.3
		c1.4,0,2.1-0.7,2.2-2.2v-30.5h-6.4c-1.5,2.6-3.5,5.5-5.9,8.7l-6-3.6c4.9-6.8,8.1-13.6,9.6-20.6l7.9,1.3c-0.7,2.7-1.5,5.2-2.4,7.4
		h26.4v4.2l-2.5,9.4l-6.7-1.8l1.3-5H442.5z M416.1,253.4c3.2-4.5,5.9-10.7,8.1-18.9l7.2,2.5c-2.9,9.6-6.3,16.8-10.2,21.8
		L416.1,253.4z M445.7,236.1l7-1.5c1.3,6.8,3.4,13.5,6.3,20.1l-6.2,4.4C449.7,252.9,447.4,245.3,445.7,236.1z"/>
	<path class="st1" d="M486.6,227.7c0,9.4-1.7,17.3-5.1,23.7c2.7,1.9,4.7,3.4,5.9,4.5l-5.3,6.5c-1.2-1.3-2.9-2.7-5-4.5
		c-3.2,3.7-7.2,6.8-12,9.5l-3.5-5.6c4.1-2.5,7.4-5.2,9.9-8.2c-2.8-2.1-5.1-3.6-6.8-4.6c-0.6-0.4-0.9-1-0.9-1.7c0-0.2,0-0.5,0.1-0.8
		c0.8-3.4,1.9-9.4,3.2-17.8h-4.1v-6.3h5c0.8-5.3,1.2-9.1,1.4-11.5l8.3,0.4c-0.1,1.8-0.6,5.5-1.6,11.1h10.5V227.7z M475.4,247.4
		c2.3-4.9,3.5-11.1,3.5-18.7H475c-1.4,7.8-2.5,13.3-3.4,16.2C472.5,245.4,473.7,246.3,475.4,247.4z M508.2,260.1
		c0,1.9-0.7,3.4-2.1,4.6c-1.4,1.2-3.1,1.8-5,1.8h-9.9l-1-8.1h7.4c1.4,0,2-0.5,2-1.5v-15.6h-13.2v-7.1h13.2v-9.1h3.7
		c2.2-1.8,4.1-3.8,5.9-5.9h-21.5v-7h30l3.6,3.8c-2.7,4.2-7.1,9-13.2,14.4v3.8h14.6v7.1h-14.6V260.1z"/>
</g>
<g>
</g>
<g>
</g>
<g>
</g>
<g>
</g>
<g>
</g>
<g>
</g>
</svg>
