<?xml version="1.0" encoding="utf-8"?>
<!-- Generator: Adobe Illustrator 19.1.0, SVG Export Plug-In . SVG Version: 6.00 Build 0)  -->
<svg version="1.1" id="Layer_1" xmlns="http://www.w3.org/2000/svg" xmlns:xlink="http://www.w3.org/1999/xlink" x="0px" y="0px"
	 viewBox="0 0 300 300" style="enable-background:new 0 0 300 300;" xml:space="preserve">
<style type="text/css">
	.st0{fill:#69458A;}
	.st1{fill:#FFFFFF;}
</style>
<circle class="st0" cx="150" cy="150" r="138.4"/>
<g>
	<path class="st1" d="M115.7,91.1l43.5,89.9c1.8,3.7,2.7,6.4,2.7,8.2c0,3.9-3.1,7.4-9.3,10.5c-3.7,1.8-6.5,2.7-8.6,2.7
		s-3.8-0.5-5.2-1.5c-1.3-1-2.3-2-2.9-3.1c-0.6-1.1-1.4-2.7-2.5-4.8l-8.4-17.4H80.4L72,193.1c-1.1,2.1-1.9,3.7-2.5,4.7
		c-0.6,1-1.6,2-2.9,3c-1.3,1-3.1,1.5-5.2,1.5s-5-0.9-8.6-2.7c-6.2-3-9.3-6.4-9.3-10.3c0-1.8,0.9-4.6,2.7-8.2l43.5-90.1
		c1.2-2.5,3-4.5,5.4-6c2.4-1.5,5-2.3,7.7-2.3C108.6,82.7,112.9,85.5,115.7,91.1z M102.6,129.7L92,151.8h21.4L102.6,129.7z"/>
	<path class="st1" d="M199.3,176.9h43.8c3.5,0,6.1,0.4,7.7,1.2c1.6,0.8,2.7,2.1,3.2,3.8c0.5,1.7,0.8,4,0.8,6.8
		c0,2.8-0.3,5.1-0.8,6.8c-0.5,1.7-1.5,2.9-2.7,3.5c-2,1.1-4.8,1.6-8.4,1.6h-58c-7.5,0-11.9-2-13.2-6.1c-0.6-1.7-1-4.5-1-8.2V96.9
		c0-2.5,0.1-4.3,0.2-5.6c0.2-1.2,0.7-2.7,1.5-4.3c1.5-2.9,5.7-4.4,12.6-4.4c7.5,0,12,2,13.4,6c0.5,1.8,0.8,4.6,0.8,8.4V176.9z"/>
</g>
<g>
</g>
<g>
</g>
<g>
</g>
<g>
</g>
<g>
</g>
<g>
</g>
</svg>
